<svg width="540" height="531" xmlns="http://www.w3.org/2000/svg" xmlns:xlink="http://www.w3.org/1999/xlink">
 <defs>
  <clipPath id="b">
   <path d="m0,0l540,0l0,531l-540,0l0,-531z" id="svg_1"/>
  </clipPath>
  <clipPath id="e">
   <path d="m2,-22l600,0l0,600l-600,0l0,-600z" id="svg_2"/>
  </clipPath>
  <clipPath id="h">
   <path fill="#fff" d="m-253.115,92.509l-0.266,37.499l157.747,1.12l0.266,-37.499l-157.747,-1.12" id="svg_3"/>
  </clipPath>
  <clipPath id="g">
   <path fill="#fff" d="m-253.115,92.509l-0.266,37.499l157.747,1.12l0.266,-37.499l-157.747,-1.12" id="svg_4"/>
  </clipPath>
  <clipPath id="f">
   <path fill="#fff" d="m-253.115,92.509l-0.266,37.499l157.747,1.12l0.266,-37.499l-157.747,-1.12" id="svg_5"/>
  </clipPath>
  <clipPath id="d">
   <path d="m8,-36l600,0l0,600l-600,0l0,-600z" id="svg_6"/>
  </clipPath>
  <mask id="c" mask-type="alpha">
   <use ns1:href="#a" id="svg_7" xmlns:ns1="http://www.w3.org/1999/xlink"/>
  </mask>
  <g id="a" display="block">
   <path fill="red" d="m310.882,44.842l0,189.409l195,0.25l0.499,99.999l-195.499,0.25l0,151.76l-105.83,0l0,-441.668l105.83,0z" id="svg_8"/>
   <path fill-opacity="0" stroke="#000" stroke-width="0" d="m310.88249,44.84336l0,189.40769l194.99859,0.24959l0.4993,99.99923l-195.49789,0.25074l0,151.75803l-105.83002,0l0,-441.66527l105.83002,0l0,-0.00001z" id="svg_9"/>
  </g>
 </defs>
 <g>
  <title>Layer 1</title>
  <path fill="none" stroke="#0F2982" stroke-width="7" d="m510.5,22.25l0,186.5l-188.5,0l0,-186.5l188.5,0zm0.75,294l0,186.5l-188.5,0l0,-186.5l188.5,0zm-301.25,-293.25l0,186.5l-188.5,0l0,-186.5l188.5,0z" id="svg_12"/>
 </g>
</svg>