<svg xmlns="http://www.w3.org/2000/svg" width="507" height="498" style="width:100%;height:100%;transform:translate3d(0,0,0);content-visibility:visible" viewBox="0 0 540 531"><defs><clipPath id="b"><path d="M0 0h540v531H0z"/></clipPath><clipPath id="e"><path d="M0 0h600v600H0z"/></clipPath><clipPath id="h"><path fill="#fff" d="m-217.115 169.509-.266 37.499 157.747 1.12.266-37.499-157.747-1.12"/></clipPath><clipPath id="g"><path fill="#fff" d="m-217.115 169.509-.266 37.499 157.747 1.12.266-37.499-157.747-1.12"/></clipPath><clipPath id="f"><path fill="#fff" d="m-217.115 169.509-.266 37.499 157.747 1.12.266-37.499-157.747-1.12"/></clipPath><clipPath id="d"><path d="M0 0h600v600H0z"/></clipPath><mask id="c" mask-type="alpha"><use xmlns:ns1="http://www.w3.org/1999/xlink" ns1:href="#a"/></mask><g id="a" style="display:block"><path fill="red" d="M310.882 44.842v189.409l195 .25.499 99.999-195.499.25V486.51h-105.83V44.842h105.83z"/><path fill-opacity="0" stroke="#000" stroke-width="0" d="M57.5-192v164.678l215.58.217.552 86.943-216.132.218V192h-117v-384h117z" transform="matrix(.90453 0 0 1.15017 258.872 265.676)"/></g></defs><g clip-path="url(#b)"><g style="display:block"><path fill="none" stroke="#0F2982" stroke-width="7" d="M502.5 44.25v186.5H314V44.25h188.5zM503.25 338.25v186.5h-188.5v-186.5h188.5zM202 45v186.5H13.5V45H202z"/></g><g mask="url(#c)" style="display:block"><g clip-path="url(#d)" transform="translate(-44 6)"><g style="display:block"><path fill="red" d="M162.935 448.5h81.25"/><path fill="none" stroke="#0F2982" stroke-width="5" d="M162.935 448.5h81.25M227.31 438.875c.188 0 16.625 10.062 16.75 10.187s-15.375 10.875-15.375 10.875"/></g><g style="display:block"><path fill="red" d="M471.844 445.781v-81.25"/><path fill="none" stroke="#0F2982" stroke-width="5" d="M471.844 445.781v-81.25M462.219 381.406c0-.188 10.062-16.625 10.187-16.75s10.875 15.375 10.875 15.375"/></g><g style="display:block"><path fill="red" d="M444.55 95.05H363.3"/><path fill="none" stroke="#0F2982" stroke-width="5" d="M444.55 95.05H363.3M380.175 85.425c-.188 0-16.625 10.062-16.75 10.187s15.375 10.875 15.375 10.875"/></g><g style="display:block"><path fill="red" d="M444.55 400.5H363.3"/><path fill="none" stroke="#0F2982" stroke-width="5" d="M444.55 400.5H363.3M380.175 390.875c-.188 0-16.625 10.062-16.75 10.187s15.375 10.875 15.375 10.875"/></g><g style="display:block"><path fill="red" d="M429.844 127.031v81.25"/><path fill="none" stroke="#0F2982" stroke-width="5" d="M429.844 127.031v81.25M420.219 191.406c0 .188 10.062 16.625 10.187 16.75s10.875-15.375 10.875-15.375"/></g><g style="display:block"><path fill="red" d="M162.935 142.75h81.25"/><path fill="none" stroke="#0F2982" stroke-width="5" d="M162.935 142.75h81.25M227.31 133.125c.188 0 16.625 10.062 16.75 10.187s-15.375 10.875-15.375 10.875"/></g><g style="display:block"><path fill="red" d="M260.75 448.5H342"/><path fill="none" stroke="#0F2982" stroke-width="5" d="M260.75 448.5H342M325.125 438.875c.188 0 16.625 10.062 16.75 10.187S326.5 459.937 326.5 459.937"/></g><g style="display:block"><path fill="red" d="M471.844 319.031v-81.25"/><path fill="none" stroke="#0F2982" stroke-width="5" d="M471.844 319.031v-81.25M462.219 254.656c0-.188 10.062-16.625 10.187-16.75s10.875 15.375 10.875 15.375"/></g><g style="display:block"><path fill="red" d="M338.75 95H257.5"/><path fill="none" stroke="#0F2982" stroke-width="5" d="M338.75 95H257.5M274.375 85.375c-.188 0-16.625 10.062-16.75 10.187S273 106.437 273 106.437"/></g><g style="display:block"><path fill="red" d="M338.75 400.5H257.5"/><path fill="none" stroke="#0F2982" stroke-width="5" d="M338.75 400.5H257.5M274.375 390.875c-.188 0-16.625 10.062-16.75 10.187S273 411.937 273 411.937"/></g><g style="display:block"><path fill="red" d="M429.844 236.031v81.25"/><path fill="none" stroke="#0F2982" stroke-width="5" d="M429.844 236.031v81.25M420.219 300.406c0 .188 10.062 16.625 10.187 16.75s10.875-15.375 10.875-15.375"/></g><g style="display:block"><path fill="red" d="M260.75 142.73H342"/><path fill="none" stroke="#0F2982" stroke-width="5" d="M260.75 142.73H342M325.125 133.105c.188 0 16.625 10.062 16.75 10.187S326.5 154.167 326.5 154.167"/></g></g></g><g fill="#102982" stroke-linejoin="round" aria-label="SPA" font-family="Arial" font-size="36" font-weight="700" style="display:block"><g style="display:inherit"><g style="display:block"><path d="M78.43 86.2c1.75 1.5 4.25 2.26 7.51 2.26 2.23 0 4.1-.32 5.6-.94 1.5-.63 2.66-1.59 3.48-2.88.82-1.29 1.23-2.67 1.23-4.15 0-1.62-.34-2.99-1.02-4.1-.69-1.11-1.64-1.98-2.85-2.62-1.21-.64-3.09-1.26-5.62-1.85-2.53-.6-4.12-1.18-4.78-1.73-.52-.43-.77-.95-.77-1.56 0-.67.27-1.2.82-1.6.86-.62 2.04-.93 3.55-.93 1.47 0 2.57.29 3.3.87.73.58 1.21 1.53 1.43 2.85l5.21-.22c-.09-2.37-.94-4.26-2.58-5.68-1.63-1.42-4.07-2.13-7.3-2.13-1.98 0-3.67.3-5.07.9-1.41.59-2.48 1.47-3.22 2.61-.75 1.14-1.12 2.37-1.12 3.68 0 2.04.79 3.77 2.38 5.19 1.12 1 3.08 1.85 5.87 2.54 2.16.54 3.55.92 4.16 1.13.89.32 1.52.69 1.87 1.12.36.42.54.94.54 1.55 0 .95-.42 1.78-1.27 2.49-.85.71-2.12 1.06-3.79 1.06-1.58 0-2.84-.4-3.77-1.19-.93-.8-1.55-2.05-1.86-3.75l-5.06.5c.34 2.88 1.38 5.07 3.13 6.58z"/></g></g><g style="display:inherit"><g style="display:block"><path d="M108.352 66.59c1.87 0 3.12.06 3.74.18.84.15 1.54.53 2.09 1.14.55.61.83 1.38.83 2.32 0 .76-.2 1.43-.59 2-.39.58-.94 1-1.63 1.27s-2.06.4-4.11.4h-2.85v-7.31h2.52zM105.832 88v-9.72h3.39c2.36 0 4.16-.12 5.4-.37.92-.2 1.81-.61 2.7-1.22.88-.62 1.61-1.46 2.19-2.54.57-1.08.86-2.41.86-3.99 0-2.05-.5-3.73-1.49-5.02-1-1.29-2.24-2.14-3.71-2.52-.97-.26-3.03-.39-6.19-.39h-8.35V88h5.2z"/></g></g><g style="display:inherit"><g style="display:block"><path d="m131.274 77.8 3.48-9.56 3.55 9.56h-7.03zm6.29-15.57h-5.5L122.024 88h5.52l2.13-5.85h10.3l2.25 5.85h5.66l-10.32-25.77z"/></g></g></g><g fill="#102982" stroke-linejoin="round" aria-label="Vite + React" font-family="Arial" font-size="36" font-weight="700" style="display:block"><g style="display:inherit"><g style="display:block"><path d="m22.25 31.5 9.23-25.77h-5.52L19.65 24.8 13.13 5.73H7.48l9.21 25.77h5.56z"/></g></g><g style="display:inherit"><g style="display:block"><path d="M39.032 31.5V12.83h-4.94V31.5h4.94zm0-21.2V5.73h-4.94v4.57h4.94z"/></g></g><g style="display:inherit"><g style="display:block"><path d="M49.283 12.83V6.24l-4.96 2.88v3.71h-2.26v3.94h2.26v8.14c0 1.74.06 2.9.16 3.48.13.81.36 1.45.7 1.92.33.48.85.86 1.57 1.16.71.3 1.52.45 2.41.45 1.45 0 2.75-.24 3.9-.74l-.42-3.83c-.87.32-1.53.48-1.99.48-.33 0-.61-.09-.83-.25-.23-.16-.38-.37-.44-.62-.07-.26-.1-1.14-.1-2.67v-7.52h3.37v-3.94h-3.37z"/></g></g><g style="display:inherit"><g style="display:block"><path d="M59.79 20.57c-.01-1.35.34-2.42 1.04-3.2.7-.79 1.59-1.18 2.67-1.18 1.01 0 1.87.37 2.57 1.12.7.74 1.07 1.83 1.11 3.26h-7.39zm5.91 7.03c-.53.42-1.18.63-1.95.63-1.14 0-2.09-.41-2.85-1.22-.76-.82-1.16-1.96-1.2-3.42h12.38c.07-3.79-.7-6.59-2.3-8.43-1.61-1.83-3.8-2.75-6.58-2.75-2.47 0-4.51.88-6.13 2.63s-2.43 4.17-2.43 7.27c0 2.59.62 4.73 1.85 6.43 1.56 2.12 3.96 3.18 7.21 3.18 2.05 0 3.75-.47 5.12-1.41 1.36-.95 2.36-2.32 3-4.13l-4.93-.82c-.27.94-.66 1.62-1.19 2.04z"/></g></g><g style="display:inherit"><g style="display:block"><path d="M96.265 27.79v-6.7h6.77v-4.62h-6.77v-6.7h-4.5v6.7h-6.75v4.62h6.75v6.7h4.5z"/></g></g><g style="display:inherit"><g style="display:block"><path d="M122.39 10.09h4.06c2.11 0 3.38.03 3.8.09.84.14 1.49.48 1.96 1.01.46.53.69 1.23.69 2.1 0 .77-.17 1.42-.53 1.93-.35.52-.83.88-1.45 1.09-.63.21-2.18.32-4.68.32h-3.85v-6.54zm0 21.41V20.74h1.05c1.2 0 2.07.1 2.62.29.55.2 1.08.55 1.57 1.07.49.53 1.4 1.79 2.74 3.79l3.76 5.61h6.22l-3.14-5.03c-1.24-2-2.23-3.4-2.96-4.18-.74-.79-1.66-1.51-2.79-2.16 2.26-.33 3.96-1.12 5.1-2.38 1.13-1.26 1.7-2.86 1.7-4.8 0-1.52-.37-2.87-1.12-4.06-.75-1.18-1.75-2-3-2.47-1.25-.46-3.25-.69-6-.69h-10.95V31.5h5.2z"/></g></g><g style="display:inherit"><g style="display:block"><path d="M146.839 20.57c-.01-1.35.34-2.42 1.04-3.2.7-.79 1.59-1.18 2.67-1.18 1.01 0 1.87.37 2.57 1.12.7.74 1.07 1.83 1.11 3.26h-7.39zm5.91 7.03c-.53.42-1.18.63-1.95.63-1.14 0-2.09-.41-2.85-1.22-.76-.82-1.16-1.96-1.2-3.42h12.38c.07-3.79-.7-6.59-2.3-8.43-1.61-1.83-3.8-2.75-6.58-2.75-2.47 0-4.51.88-6.13 2.63s-2.43 4.17-2.43 7.27c0 2.59.62 4.73 1.85 6.43 1.56 2.12 3.96 3.18 7.21 3.18 2.05 0 3.75-.47 5.12-1.41 1.36-.95 2.36-2.32 3-4.13l-4.93-.82c-.27.94-.66 1.62-1.19 2.04z"/></g></g><g style="display:inherit"><g style="display:block"><path d="M173.452 23.52c0 1.18-.06 1.99-.19 2.41-.19.64-.58 1.19-1.18 1.63-.81.59-1.65.88-2.55.88-.79 0-1.45-.25-1.96-.75-.52-.51-.78-1.11-.78-1.8 0-.7.32-1.28.97-1.74.42-.28 1.32-.57 2.69-.86 1.37-.29 2.37-.54 3-.75v.98zm-5.41-6.81c.49-.35 1.18-.52 2.06-.52 1.3 0 2.18.2 2.65.61.47.4.7 1.08.7 2.03v.49c-.89.37-2.49.78-4.79 1.21-1.72.33-3.02.71-3.93 1.15-.91.44-1.62 1.07-2.12 1.9-.5.83-.76 1.77-.76 2.82 0 1.6.56 2.91 1.66 3.96 1.11 1.04 2.63 1.56 4.55 1.56 1.09 0 2.11-.2 3.07-.61.97-.41 1.87-1.03 2.71-1.85.04.09.1.29.18.58.18.65.34 1.13.47 1.46h4.89c-.44-.89-.73-1.73-.89-2.5-.16-.78-.24-1.99-.24-3.63l.06-5.77c0-2.15-.22-3.62-.66-4.42-.44-.8-1.2-1.47-2.28-1.99-1.08-.52-2.72-.78-4.92-.78-2.43 0-4.25.43-5.49 1.3-1.23.87-2.09 2.2-2.6 4.01l4.49.81c.3-.87.7-1.48 1.19-1.82z"/></g></g><g style="display:inherit"><g style="display:block"><path d="M196.565 13.88c-1.34-.98-3.15-1.47-5.42-1.47-2.78 0-4.98.86-6.61 2.58-1.63 1.71-2.45 4.11-2.45 7.19 0 3.05.82 5.44 2.44 7.16 1.62 1.72 3.8 2.58 6.53 2.58 2.4 0 4.32-.57 5.75-1.7 1.43-1.14 2.39-2.82 2.9-5.05l-4.85-.82c-.25 1.3-.67 2.21-1.27 2.75-.6.53-1.36.8-2.3.8-1.26 0-2.26-.46-3-1.37-.74-.92-1.12-2.48-1.12-4.7 0-1.99.37-3.41 1.1-4.26.73-.85 1.72-1.27 2.95-1.27.92 0 1.68.24 2.26.73.58.5.95 1.23 1.11 2.2l4.87-.88c-.58-2-1.55-3.49-2.89-4.47z"/></g></g><g style="display:inherit"><g style="display:block"><path d="M208.388 12.83V6.24l-4.96 2.88v3.71h-2.26v3.94h2.26v8.14c0 1.74.06 2.9.16 3.48.13.81.36 1.45.7 1.92.33.48.85.86 1.57 1.16.71.3 1.52.45 2.41.45 1.45 0 2.75-.24 3.9-.74l-.42-3.83c-.87.32-1.53.48-1.99.48-.33 0-.61-.09-.83-.25-.23-.16-.38-.37-.44-.62-.07-.26-.1-1.14-.1-2.67v-7.52h3.37v-3.94h-3.37z"/></g></g></g><g fill="#102982" stroke-linejoin="round" aria-label="C# ASP.NET core" class="NET" font-family="Arial" font-size="31" font-weight="700" style="display:block"><g style="display:inherit"><g style="display:block"><path d="M299.11 26.91c-.86.76-1.89 1.14-3.08 1.14-1.61 0-2.92-.6-3.93-1.79-1.01-1.19-1.52-3.19-1.52-5.99 0-2.64.52-4.56 1.54-5.74 1.03-1.18 2.36-1.77 4.01-1.77 1.19 0 2.2.33 3.03 1 .83.67 1.38 1.57 1.64 2.72l4.44-1.06c-.51-1.77-1.26-3.13-2.27-4.08-1.7-1.61-3.9-2.41-6.62-2.41-3.11 0-5.61 1.02-7.52 3.07-1.91 2.04-2.86 4.91-2.86 8.6 0 3.49.95 6.25 2.84 8.26 1.9 2.01 4.32 3.02 7.27 3.02 2.38 0 4.35-.59 5.9-1.77 1.54-1.17 2.65-2.97 3.32-5.39l-4.35-1.38c-.37 1.63-.99 2.82-1.84 3.57z"/></g></g><g style="display:inherit"><g style="display:block"><path d="m317.548 18.18-.88 4.47h-3.36l.89-4.47h3.35zm-9.52 13.7h3.42l1.19-5.9h3.36l-1.16 5.9h3.37l1.2-5.9h4.36v-3.33h-3.68l.91-4.47h2.77v-3.35h-2.09l1.21-5.9h-3.51l-1.17 5.9h-3.34l1.19-5.9h-3.39l-1.19 5.9h-4.32v3.35h3.64l-.91 4.47h-2.73v3.33h2.06l-1.19 5.9z"/></g></g><g style="display:inherit"><g style="display:block"><path d="m340.702 22.72 3-8.23 3.06 8.23h-6.06zm5.42-13.41h-4.74l-8.64 22.19h4.75l1.83-5.04h8.87l1.94 5.04h4.88l-8.89-22.19z"/></g></g><g style="display:inherit"><g style="display:block"><path d="M358.94 29.95c1.51 1.3 3.66 1.94 6.47 1.94 1.93 0 3.53-.27 4.83-.81 1.29-.54 2.29-1.36 2.99-2.47.71-1.11 1.06-2.3 1.06-3.57 0-1.41-.29-2.58-.88-3.54-.59-.95-1.41-1.7-2.45-2.25-1.05-.55-2.66-1.09-4.84-1.6-2.18-.51-3.55-1.01-4.12-1.48-.44-.38-.66-.83-.66-1.35 0-.58.23-1.03.71-1.38.73-.53 1.75-.8 3.06-.8 1.26 0 2.2.25 2.83.75.63.5 1.05 1.32 1.24 2.46l4.48-.2c-.07-2.04-.81-3.67-2.22-4.89-1.41-1.22-3.5-1.83-6.29-1.83-1.71 0-3.16.26-4.37.77-1.2.52-2.13 1.27-2.77 2.25-.64.98-.96 2.04-.96 3.17 0 1.76.68 3.25 2.05 4.47.96.87 2.65 1.6 5.05 2.19 1.87.47 3.06.79 3.59.97.77.27 1.3.59 1.61.96.31.37.46.82.46 1.34 0 .82-.36 1.53-1.09 2.14-.74.61-1.82.92-3.27.92-1.36 0-2.44-.34-3.24-1.03-.81-.69-1.34-1.76-1.6-3.22l-4.36.42c.29 2.48 1.19 4.37 2.69 5.67z"/></g></g><g style="display:inherit"><g style="display:block"><path d="M384.707 13.06c1.61 0 2.69.05 3.22.15.73.14 1.33.46 1.81.99.47.52.71 1.19.71 2 0 .65-.17 1.23-.51 1.72-.34.5-.8.86-1.4 1.09-.6.23-1.78.35-3.54.35h-2.45v-6.3h2.16zm-2.16 18.44v-8.37h2.92c2.03 0 3.57-.11 4.64-.32.79-.17 1.57-.52 2.33-1.05s1.39-1.26 1.88-2.19c.5-.93.74-2.07.74-3.43 0-1.77-.43-3.21-1.28-4.33-.86-1.11-1.93-1.83-3.2-2.17-.82-.22-2.6-.33-5.32-.33h-7.19V31.5h4.48z"/></g></g><g style="display:inherit"><g style="display:block"><path d="M402.964 31.5v-4.25h-4.25v4.25h4.25z"/></g></g><g style="display:inherit"><g style="display:block"><path d="M411.556 31.5V17.03l8.95 14.47h4.49V9.31h-4.16v14.82l-9.08-14.82h-4.36V31.5h4.16z"/></g></g><g style="display:inherit"><g style="display:block"><path d="M446.614 31.5v-3.74h-12.39v-6.04h11.14v-3.74h-11.14v-4.92h11.97V9.31h-16.45V31.5h16.87z"/></g></g><g style="display:inherit"><g style="display:block"><path d="M459.891 31.5V13.06h6.57V9.31h-17.63v3.75h6.58V31.5h4.48z"/></g></g><g style="display:inherit"><g style="display:block"><path d="M489.458 16.33c-1.15-.85-2.71-1.27-4.67-1.27-2.39 0-4.29.74-5.69 2.22-1.4 1.48-2.1 3.54-2.1 6.2 0 2.62.7 4.67 2.09 6.16 1.4 1.48 3.28 2.22 5.63 2.22 2.07 0 3.71-.49 4.95-1.46 1.23-.98 2.06-2.43 2.49-4.35l-4.17-.71c-.22 1.12-.58 1.91-1.09 2.37-.52.46-1.18.69-1.99.69-1.08 0-1.94-.4-2.58-1.18-.64-.79-.96-2.14-.96-4.05 0-1.71.32-2.93.95-3.67.63-.73 1.47-1.09 2.53-1.09.8 0 1.45.21 1.95.63.5.43.82 1.06.96 1.89l4.19-.75c-.5-1.73-1.33-3.01-2.49-3.85z"/></g></g><g style="display:inherit"><g style="display:block"><path d="M499.69 19.8c.75-.85 1.69-1.27 2.8-1.27 1.11 0 2.04.42 2.79 1.27.75.85 1.13 2.06 1.13 3.63 0 1.62-.38 2.85-1.13 3.7-.75.84-1.68 1.27-2.79 1.27s-2.05-.43-2.8-1.27c-.76-.85-1.14-2.07-1.14-3.67 0-1.59.38-2.81 1.14-3.66zm-4.45 8.14c.69 1.28 1.71 2.26 3.05 2.92 1.33.67 2.74 1 4.21 1 2.38 0 4.36-.8 5.93-2.4 1.57-1.6 2.35-3.61 2.35-6.04 0-2.41-.78-4.41-2.33-5.99s-3.55-2.37-5.98-2.37c-1.57 0-3 .35-4.28 1.05-1.27.69-2.26 1.7-2.95 3.02-.7 1.33-1.05 2.69-1.05 4.11 0 1.84.35 3.41 1.05 4.7z"/></g></g><g style="display:inherit"><g style="display:block"><path d="M518.185 26.54c0-2.74.12-4.54.35-5.39.24-.86.56-1.45.98-1.78.41-.33.92-.49 1.51-.49.62 0 1.28.23 2 .69l1.32-3.71c-.9-.53-1.83-.8-2.8-.8-.69 0-1.3.17-1.84.52-.54.34-1.15 1.05-1.83 2.13v-2.29h-3.95V31.5h4.26v-4.96z"/></g></g><g style="display:inherit"><g style="display:block"><path d="M529.37 22.08c-.01-1.16.29-2.07.89-2.75.61-.68 1.37-1.01 2.3-1.01.87 0 1.61.32 2.21.96.61.64.93 1.57.96 2.8h-6.36zm5.08 6.06c-.45.36-1.01.54-1.68.54-.97 0-1.79-.35-2.45-1.05-.65-.7-1-1.68-1.03-2.94h10.66c.06-3.26-.6-5.68-1.98-7.26-1.39-1.58-3.27-2.37-5.66-2.37-2.13 0-3.89.76-5.29 2.26-1.39 1.51-2.09 3.6-2.09 6.26 0 2.23.53 4.08 1.59 5.54 1.35 1.83 3.41 2.74 6.21 2.74 1.76 0 3.24-.4 4.41-1.22 1.18-.81 2.04-1.99 2.58-3.54l-4.24-.72c-.23.81-.57 1.4-1.03 1.76z"/></g></g></g><g fill="red" stroke-linejoin="round" aria-label="REST server gRPC client" font-family="Arial" font-size="28" font-weight="700" style="display:block"><g style="display:inherit"><g fill="#102982" style="display:block"><path d="M330.328 101.35h3.16c1.64 0 2.62.02 2.95.07.66.11 1.16.37 1.52.78.36.42.54.96.54 1.64 0 .6-.13 1.1-.41 1.5-.27.4-.65.68-1.13.85-.48.16-1.7.24-3.64.24h-2.99v-5.08zm0 16.65v-8.37h.82c.93 0 1.61.08 2.03.23.43.15.84.43 1.22.83.38.41 1.1 1.39 2.13 2.95l2.93 4.36h4.84l-2.45-3.91c-.96-1.56-1.73-2.64-2.3-3.25-.57-.61-1.29-1.18-2.17-1.69 1.76-.25 3.08-.87 3.97-1.85.88-.98 1.32-2.22 1.32-3.72 0-1.19-.29-2.24-.87-3.16-.59-.92-1.36-1.56-2.33-1.92-.97-.36-2.53-.54-4.67-.54h-8.52V118h4.05z"/></g></g><g style="display:inherit"><g fill="#102982" style="display:block"><path d="M361.73 118v-3.38h-11.2v-5.45h10.07v-3.38h-10.07v-4.44h10.82v-3.39h-14.86V118h15.24z"/></g></g><g style="display:inherit"><g fill="#102982" style="display:block"><path d="M366.576 116.6c1.35 1.17 3.3 1.76 5.83 1.76 1.74 0 3.2-.25 4.36-.74 1.17-.48 2.07-1.23 2.71-2.23.64-1 .96-2.08.96-3.23 0-1.26-.27-2.33-.8-3.19-.53-.86-1.27-1.54-2.22-2.04-.94-.49-2.4-.98-4.36-1.44-1.97-.46-3.21-.91-3.72-1.34-.4-.34-.6-.74-.6-1.22 0-.52.21-.93.64-1.24.66-.48 1.58-.73 2.76-.73 1.14 0 1.99.23 2.56.68.57.45.94 1.19 1.12 2.22l4.04-.17c-.06-1.85-.73-3.32-2-4.42s-3.16-1.65-5.68-1.65c-1.54 0-2.85.23-3.94.69-1.09.47-1.93 1.14-2.51 2.03-.57.89-.86 1.85-.86 2.87 0 1.58.61 2.93 1.84 4.03.88.78 2.4 1.44 4.57 1.98 1.68.42 2.76.71 3.24.88.69.24 1.18.53 1.45.87.28.33.42.73.42 1.21 0 .73-.33 1.38-.99 1.93-.66.55-1.64.83-2.95.83-1.23 0-2.2-.31-2.93-.93-.72-.62-1.2-1.59-1.44-2.91l-3.94.38c.27 2.24 1.08 3.95 2.44 5.12z"/></g></g><g style="display:inherit"><g fill="#102982" style="display:block"><path d="M392.402 118v-16.65h5.93v-3.39h-15.93v3.39h5.95V118h4.05z"/></g></g><g style="display:inherit"><g fill="#102982" style="display:block"><path d="M409.602 117.12c1.15.81 2.72 1.21 4.7 1.21 2.17 0 3.82-.48 4.93-1.44 1.11-.95 1.67-2.1 1.67-3.43 0-1.22-.4-2.17-1.2-2.86-.82-.67-2.24-1.24-4.29-1.71-2.05-.46-3.24-.82-3.59-1.08-.25-.19-.38-.42-.38-.69 0-.32.14-.58.44-.78.43-.28 1.16-.43 2.17-.43.8 0 1.42.15 1.85.46.43.3.73.73.88 1.29l3.63-.67c-.37-1.26-1.03-2.22-2-2.87-.97-.64-2.44-.97-4.43-.97-2.09 0-3.63.43-4.62 1.29-.99.85-1.49 1.91-1.49 3.17 0 1.39.57 2.48 1.72 3.27.83.56 2.8 1.19 5.89 1.87.67.16 1.1.32 1.29.51.18.19.27.43.27.72 0 .43-.17.77-.5 1.03-.5.36-1.25.54-2.24.54-.91 0-1.61-.19-2.11-.58-.5-.39-.83-.95-1-1.7l-3.85.59a5.524 5.524 0 0 0 2.26 3.26z"/></g></g><g style="display:inherit"><g fill="#102982" style="display:block"><path d="M427.146 109.5c0-1.05.26-1.88.81-2.49.55-.61 1.24-.92 2.08-.92.78 0 1.45.29 2 .87.54.58.83 1.42.86 2.54h-5.75zm4.6 5.46c-.41.33-.92.5-1.52.5-.88 0-1.62-.32-2.21-.95-.6-.64-.91-1.52-.93-2.66h9.62c.06-2.95-.54-5.13-1.79-6.56-1.25-1.42-2.95-2.14-5.11-2.14-1.93 0-3.52.68-4.77 2.05-1.26 1.36-1.89 3.24-1.89 5.65 0 2.01.48 3.68 1.43 5 1.22 1.65 3.08 2.48 5.61 2.48 1.59 0 2.92-.37 3.99-1.1 1.06-.74 1.83-1.8 2.33-3.21l-3.83-.64c-.21.73-.52 1.26-.93 1.58z"/></g></g><g style="display:inherit"><g fill="#102982" style="display:block"><path d="M443.52 113.52c0-2.47.1-4.1.32-4.87.21-.78.51-1.31.88-1.61.37-.29.83-.44 1.37-.44.55 0 1.16.21 1.8.63l1.19-3.35c-.81-.49-1.65-.73-2.53-.73-.62 0-1.17.16-1.66.47-.49.31-1.04.95-1.65 1.93v-2.07h-3.56V118h3.84v-4.48z"/></g></g><g style="display:inherit"><g fill="#102982" style="display:block"><path d="m458.187 118 5.77-14.52h-3.95l-2.76 7.41c-.15.41-.29.82-.41 1.23-.06.2-.19.62-.4 1.25l-.79-2.48-2.74-7.41h-4.03l5.85 14.52h3.46z"/></g></g><g style="display:inherit"><g fill="#102982" style="display:block"><path d="M469.19 109.5c0-1.05.26-1.88.81-2.49.55-.61 1.24-.92 2.08-.92.78 0 1.45.29 2 .87.54.58.83 1.42.86 2.54h-5.75zm4.6 5.46c-.41.33-.92.5-1.52.5-.88 0-1.62-.32-2.21-.95-.6-.64-.91-1.52-.93-2.66h9.62c.06-2.95-.54-5.13-1.79-6.56-1.25-1.42-2.95-2.14-5.11-2.14-1.93 0-3.52.68-4.77 2.05-1.26 1.36-1.89 3.24-1.89 5.65 0 2.01.48 3.68 1.43 5 1.22 1.65 3.08 2.48 5.61 2.48 1.59 0 2.92-.37 3.99-1.1 1.06-.74 1.83-1.8 2.33-3.21l-3.83-.64c-.21.73-.52 1.26-.93 1.58z"/></g></g><g style="display:inherit"><g fill="#102982" style="display:block"><path d="M485.564 113.52c0-2.47.1-4.1.32-4.87.21-.78.51-1.31.88-1.61.37-.29.83-.44 1.37-.44.55 0 1.16.21 1.8.63l1.19-3.35c-.81-.49-1.65-.73-2.53-.73-.62 0-1.17.16-1.66.47-.49.31-1.04.95-1.65 1.93v-2.07h-3.56V118h3.84v-4.48z"/></g></g><g style="display:inherit"><g fill="#102982" style="display:block"><path d="M334.915 192.17c.6-.72 1.36-1.08 2.28-1.08.95 0 1.73.37 2.35 1.1.62.72.93 1.84.93 3.35 0 1.44-.32 2.52-.97 3.26-.65.73-1.44 1.1-2.38 1.1-.88 0-1.61-.36-2.21-1.08-.6-.71-.89-1.84-.89-3.38 0-1.47.29-2.56.89-3.27zm-4.34 12.25c0 1.3.52 2.36 1.55 3.21 1.03.84 2.77 1.26 5.23 1.26 1.31 0 2.38-.13 3.24-.41.85-.27 1.53-.65 2.04-1.13.51-.49.91-1.15 1.19-2 .28-.85.42-2.13.42-3.84v-13.03h-3.59v2.04c-1.17-1.58-2.65-2.37-4.45-2.37-1.74 0-3.19.64-4.36 1.93-1.18 1.29-1.76 3.14-1.76 5.58 0 1.94.44 3.56 1.34 4.87 1.14 1.65 2.68 2.47 4.63 2.47 1.75 0 3.2-.78 4.35-2.35v2.12c0 .85-.06 1.44-.18 1.76-.17.45-.43.77-.76.97-.5.3-1.26.45-2.26.45-.78 0-1.36-.13-1.72-.41-.27-.19-.43-.54-.51-1.05l-4.39-.53c0 .18-.01.33-.01.46z"/></g></g><g style="display:inherit"><g fill="#102982" style="display:block"><path d="M352.137 186.35h3.16c1.64 0 2.62.02 2.95.07.66.11 1.16.37 1.52.78.36.42.54.96.54 1.64 0 .6-.13 1.1-.41 1.5-.27.4-.65.68-1.13.85-.48.16-1.7.24-3.64.24h-2.99v-5.08zm0 16.65v-8.37h.82c.93 0 1.61.08 2.03.23.43.15.84.43 1.22.83.38.41 1.1 1.39 2.13 2.95l2.93 4.36h4.84l-2.45-3.91c-.96-1.56-1.73-2.64-2.3-3.25-.57-.61-1.29-1.18-2.17-1.69 1.76-.25 3.08-.87 3.97-1.85.88-.98 1.32-2.22 1.32-3.72 0-1.19-.29-2.24-.87-3.16-.59-.92-1.36-1.56-2.33-1.92-.97-.36-2.53-.54-4.67-.54h-8.52V203h4.05z"/></g></g><g style="display:inherit"><g fill="#102982" style="display:block"><path d="M374.299 186.35c1.46 0 2.43.04 2.91.13.66.12 1.2.42 1.63.89.43.48.64 1.08.64 1.81 0 .59-.15 1.11-.46 1.56-.3.44-.72.77-1.26.98-.54.21-1.61.32-3.2.32h-2.22v-5.69h1.96zm-1.96 16.65v-7.56h2.64c1.83 0 3.23-.1 4.2-.29.71-.15 1.41-.47 2.1-.95.69-.48 1.25-1.13 1.7-1.97.45-.84.67-1.88.67-3.11 0-1.59-.39-2.89-1.16-3.9-.78-1.01-1.74-1.66-2.89-1.96-.74-.2-2.35-.3-4.81-.3h-6.49V203h4.04z"/></g></g><g style="display:inherit"><g fill="#102982" style="display:block"><path d="M398.125 198.86c-.77.68-1.7 1.02-2.77 1.02-1.46 0-2.65-.54-3.56-1.61-.91-1.08-1.36-2.88-1.36-5.41 0-2.39.46-4.12 1.38-5.19.93-1.06 2.13-1.6 3.62-1.6 1.08 0 1.99.3 2.74.91.75.6 1.25 1.42 1.48 2.46l4.01-.96c-.46-1.6-1.14-2.83-2.05-3.69-1.53-1.45-3.52-2.17-5.98-2.17-2.8 0-5.07.92-6.79 2.76-1.72 1.85-2.58 4.44-2.58 7.78 0 3.15.85 5.64 2.57 7.45 1.71 1.82 3.9 2.73 6.56 2.73 2.15 0 3.93-.53 5.32-1.59 1.4-1.06 2.4-2.69 3.01-4.88l-3.93-1.24c-.34 1.47-.89 2.54-1.67 3.23z"/></g></g><g style="display:inherit"><g fill="#102982" style="display:block"><path d="M425.355 189.29c-1.04-.76-2.45-1.14-4.22-1.14-2.16 0-3.87.67-5.14 2.01-1.26 1.33-1.9 3.2-1.9 5.59 0 2.37.63 4.23 1.9 5.57 1.26 1.34 2.95 2.01 5.07 2.01 1.87 0 3.36-.44 4.48-1.33 1.11-.88 1.86-2.19 2.25-3.92l-3.77-.64c-.19 1.01-.52 1.72-.99 2.14-.46.41-1.06.62-1.79.62-.97 0-1.75-.36-2.33-1.07-.58-.71-.87-1.93-.87-3.65 0-1.55.29-2.65.86-3.31.57-.67 1.33-1 2.29-1 .72 0 1.3.2 1.75.58.46.38.75.95.87 1.71l3.79-.69c-.46-1.55-1.21-2.71-2.25-3.48z"/></g></g><g style="display:inherit"><g fill="#102982" style="display:block"><path d="M434.358 203v-20.04h-3.84V203h3.84z"/></g></g><g style="display:inherit"><g fill="#102982" style="display:block"><path d="M442.137 203v-14.52h-3.84V203h3.84zm0-16.49v-3.55h-3.84v3.55h3.84z"/></g></g><g style="display:inherit"><g fill="#102982" style="display:block"><path d="M448.955 194.5c0-1.05.26-1.88.81-2.49.55-.61 1.24-.92 2.08-.92.78 0 1.45.29 2 .87.54.58.83 1.42.86 2.54h-5.75zm4.6 5.46c-.41.33-.92.5-1.52.5-.88 0-1.62-.32-2.21-.95-.6-.64-.91-1.52-.93-2.66h9.62c.06-2.95-.54-5.13-1.79-6.56-1.25-1.42-2.95-2.14-5.11-2.14-1.93 0-3.52.68-4.77 2.05-1.26 1.36-1.89 3.24-1.89 5.65 0 2.01.48 3.68 1.43 5 1.22 1.65 3.08 2.48 5.61 2.48 1.59 0 2.92-.37 3.99-1.1 1.06-.74 1.83-1.8 2.33-3.21l-3.83-.64c-.21.73-.52 1.26-.93 1.58z"/></g></g><g style="display:inherit"><g fill="#102982" style="display:block"><path d="M474.859 193.98c0-1.12-.07-1.99-.22-2.59-.14-.6-.39-1.14-.75-1.61-.36-.47-.89-.86-1.59-1.17-.7-.3-1.48-.46-2.32-.46-1.93 0-3.52.82-4.79 2.46v-2.13h-3.57V203h3.84v-6.58c0-1.62.1-2.73.3-3.33.19-.6.56-1.09 1.08-1.45.53-.37 1.13-.55 1.8-.55.52 0 .96.13 1.33.38.37.26.63.62.8 1.08.16.46.25 1.47.25 3.04V203h3.84v-9.02z"/></g></g><g style="display:inherit"><g fill="#102982" style="display:block"><path d="M482.781 188.48v-5.13l-3.85 2.25v2.88h-1.77v3.06h1.77v6.33c0 1.36.04 2.26.12 2.71.1.63.28 1.13.54 1.5.26.37.67.67 1.22.9.56.23 1.18.35 1.88.35 1.13 0 2.14-.19 3.03-.58l-.33-2.98c-.67.25-1.18.37-1.54.37-.26 0-.47-.06-.65-.19a.845.845 0 0 1-.34-.48c-.05-.2-.08-.89-.08-2.08v-5.85h2.63v-3.06h-2.63z"/></g></g></g><g fill="#102982" stroke-linejoin="round" aria-label="gRPC server" font-family="Arial" font-size="28" font-weight="700" style="display:block"><g style="display:inherit"><g style="display:block"><path d="M329.435 418.67c.6-.72 1.36-1.08 2.28-1.08.95 0 1.73.37 2.35 1.1.62.72.93 1.84.93 3.35 0 1.44-.32 2.52-.97 3.26-.65.73-1.44 1.1-2.38 1.1-.88 0-1.61-.36-2.21-1.08-.6-.71-.89-1.84-.89-3.38 0-1.47.29-2.56.89-3.27zm-4.34 12.25c0 1.3.52 2.36 1.55 3.21 1.03.84 2.77 1.26 5.23 1.26 1.31 0 2.38-.13 3.24-.41.85-.27 1.53-.65 2.04-1.13.51-.49.91-1.15 1.19-2 .28-.85.42-2.13.42-3.84v-13.03h-3.59v2.04c-1.17-1.58-2.65-2.37-4.45-2.37-1.74 0-3.19.64-4.36 1.93-1.18 1.29-1.76 3.14-1.76 5.58 0 1.94.44 3.56 1.34 4.87 1.14 1.65 2.68 2.47 4.63 2.47 1.75 0 3.2-.78 4.35-2.35v2.12c0 .85-.06 1.44-.18 1.76-.17.45-.43.77-.76.97-.5.3-1.26.45-2.26.45-.78 0-1.36-.13-1.72-.41-.27-.19-.43-.54-.51-1.05l-4.39-.53c0 .18-.01.33-.01.46z"/></g></g><g style="display:inherit"><g style="display:block"><path d="M346.658 412.85h3.16c1.64 0 2.62.02 2.95.07.66.11 1.16.37 1.52.78.36.42.54.96.54 1.64 0 .6-.13 1.1-.41 1.5-.27.4-.65.68-1.13.85-.48.16-1.7.24-3.64.24h-2.99v-5.08zm0 16.65v-8.37h.82c.93 0 1.61.08 2.03.23.43.15.84.43 1.22.83.38.41 1.1 1.39 2.13 2.95l2.93 4.36h4.84l-2.45-3.91c-.96-1.56-1.73-2.64-2.3-3.25-.57-.61-1.29-1.18-2.17-1.69 1.76-.25 3.08-.87 3.97-1.85.88-.98 1.32-2.22 1.32-3.72 0-1.19-.29-2.24-.87-3.16-.59-.92-1.36-1.56-2.33-1.92-.97-.36-2.53-.54-4.67-.54h-8.52v20.04h4.05z"/></g></g><g style="display:inherit"><g style="display:block"><path d="M368.82 412.85c1.46 0 2.43.04 2.91.13.66.12 1.2.42 1.63.89.43.48.64 1.08.64 1.81 0 .59-.15 1.11-.46 1.56-.3.44-.72.77-1.26.98-.54.21-1.61.32-3.2.32h-2.22v-5.69h1.96zm-1.96 16.65v-7.56h2.64c1.83 0 3.23-.1 4.2-.29.71-.15 1.41-.47 2.1-.95.69-.48 1.25-1.13 1.7-1.97.45-.84.67-1.88.67-3.11 0-1.59-.39-2.89-1.16-3.9-.78-1.01-1.74-1.66-2.89-1.96-.74-.2-2.35-.3-4.81-.3h-6.49v20.04h4.04z"/></g></g><g style="display:inherit"><g style="display:block"><path d="M392.645 425.36c-.77.68-1.7 1.02-2.77 1.02-1.46 0-2.65-.54-3.56-1.61-.91-1.08-1.36-2.88-1.36-5.41 0-2.39.46-4.12 1.38-5.19.93-1.06 2.13-1.6 3.62-1.6 1.08 0 1.99.3 2.74.91.75.6 1.25 1.42 1.48 2.46l4.01-.96c-.46-1.6-1.14-2.83-2.05-3.69-1.53-1.45-3.52-2.17-5.98-2.17-2.8 0-5.07.92-6.79 2.76-1.72 1.85-2.58 4.44-2.58 7.78 0 3.15.85 5.64 2.57 7.45 1.71 1.82 3.9 2.73 6.56 2.73 2.15 0 3.93-.53 5.32-1.59 1.4-1.06 2.4-2.69 3.01-4.88l-3.93-1.24c-.34 1.47-.89 2.54-1.67 3.23z"/></g></g><g style="display:inherit"><g style="display:block"><path d="M410.375 428.62c1.15.81 2.72 1.21 4.7 1.21 2.17 0 3.82-.48 4.93-1.44 1.11-.95 1.67-2.1 1.67-3.43 0-1.22-.4-2.17-1.2-2.86-.82-.67-2.24-1.24-4.29-1.71-2.05-.46-3.24-.82-3.59-1.08-.25-.19-.38-.42-.38-.69 0-.32.14-.58.44-.78.43-.28 1.16-.43 2.17-.43.8 0 1.42.15 1.85.46.43.3.73.73.88 1.29l3.63-.67c-.37-1.26-1.03-2.22-2-2.87-.97-.64-2.44-.97-4.43-.97-2.09 0-3.63.43-4.62 1.29-.99.85-1.49 1.91-1.49 3.17 0 1.39.57 2.48 1.72 3.27.83.56 2.8 1.19 5.89 1.87.67.16 1.1.32 1.29.51.18.19.27.43.27.72 0 .43-.17.77-.5 1.03-.5.36-1.25.54-2.24.54-.91 0-1.61-.19-2.11-.58-.5-.39-.83-.95-1-1.7l-3.85.59a5.524 5.524 0 0 0 2.26 3.26z"/></g></g><g style="display:inherit"><g style="display:block"><path d="M427.919 421c0-1.05.26-1.88.81-2.49.55-.61 1.24-.92 2.08-.92.78 0 1.45.29 2 .87.54.58.83 1.42.86 2.54h-5.75zm4.6 5.46c-.41.33-.92.5-1.52.5-.88 0-1.62-.32-2.21-.95-.6-.64-.91-1.52-.93-2.66h9.62c.06-2.95-.54-5.13-1.79-6.56-1.25-1.42-2.95-2.14-5.11-2.14-1.93 0-3.52.68-4.77 2.05-1.26 1.36-1.89 3.24-1.89 5.65 0 2.01.48 3.68 1.43 5 1.22 1.65 3.08 2.48 5.61 2.48 1.59 0 2.92-.37 3.99-1.1 1.06-.74 1.83-1.8 2.33-3.21l-3.83-.64c-.21.73-.52 1.26-.93 1.58z"/></g></g><g style="display:inherit"><g style="display:block"><path d="M444.292 425.02c0-2.47.1-4.1.32-4.87.21-.78.51-1.31.88-1.61.37-.29.83-.44 1.37-.44.55 0 1.16.21 1.8.63l1.19-3.35c-.81-.49-1.65-.73-2.53-.73-.62 0-1.17.16-1.66.47-.49.31-1.04.95-1.65 1.93v-2.07h-3.56v14.52h3.84v-4.48z"/></g></g><g style="display:inherit"><g style="display:block"><path d="m458.96 429.5 5.77-14.52h-3.95l-2.76 7.41c-.15.41-.29.82-.41 1.23-.06.2-.19.62-.4 1.25l-.79-2.48-2.74-7.41h-4.03l5.85 14.52h3.46z"/></g></g><g style="display:inherit"><g style="display:block"><path d="M469.964 421c0-1.05.26-1.88.81-2.49.55-.61 1.24-.92 2.08-.92.78 0 1.45.29 2 .87.54.58.83 1.42.86 2.54h-5.75zm4.6 5.46c-.41.33-.92.5-1.52.5-.88 0-1.62-.32-2.21-.95-.6-.64-.91-1.52-.93-2.66h9.62c.06-2.95-.54-5.13-1.79-6.56-1.25-1.42-2.95-2.14-5.11-2.14-1.93 0-3.52.68-4.77 2.05-1.26 1.36-1.89 3.24-1.89 5.65 0 2.01.48 3.68 1.43 5 1.22 1.65 3.08 2.48 5.61 2.48 1.59 0 2.92-.37 3.99-1.1 1.06-.74 1.83-1.8 2.33-3.21l-3.83-.64c-.21.73-.52 1.26-.93 1.58z"/></g></g><g style="display:inherit"><g style="display:block"><path d="M486.337 425.02c0-2.47.1-4.1.32-4.87.21-.78.51-1.31.88-1.61.37-.29.83-.44 1.37-.44.55 0 1.16.21 1.8.63l1.19-3.35c-.81-.49-1.65-.73-2.53-.73-.62 0-1.17.16-1.66.47-.49.31-1.04.95-1.65 1.93v-2.07h-3.56v14.52h3.84v-4.48z"/></g></g></g><g fill="#102982" stroke-linejoin="round" aria-label="Microservice #1" font-family="Arial" font-size="22" font-weight="400" style="display:block"><g style="display:inherit"><g style="display:block"><path d="M336.14 74V60.59L340.7 74h1.88l4.57-13.18V74h2.01V58.25h-2.8l-3.77 10.96c-.38 1.11-.66 1.95-.84 2.52-.16-.51-.41-1.29-.75-2.33l-3.73-11.15h-3.14V74h2.01z"/></g></g><g style="display:inherit"><g style="display:block"><path d="M354.216 74V62.59h-1.93V74h1.93zm0-13.52v-2.23h-1.93v2.23h1.93z"/></g></g><g style="display:inherit"><g style="display:block"><path d="M363.644 71.97c-.51.47-1.14.7-1.9.7-.95 0-1.72-.35-2.3-1.04-.59-.7-.88-1.81-.88-3.34 0-1.52.3-2.62.91-3.32.61-.7 1.4-1.05 2.37-1.05.65 0 1.2.2 1.65.58.46.39.77.97.95 1.73l1.88-.29c-.22-1.15-.72-2.04-1.51-2.67-.79-.62-1.8-.94-3.04-.94-.98 0-1.89.23-2.72.7-.84.46-1.46 1.15-1.87 2.08-.41.92-.61 2-.61 3.23 0 1.9.47 3.37 1.42 4.39.95 1.02 2.21 1.53 3.77 1.53 1.24 0 2.29-.37 3.15-1.11.86-.75 1.39-1.77 1.6-3.08l-1.91-.25c-.13.97-.45 1.68-.96 2.15z"/></g></g><g style="display:inherit"><g style="display:block"><path d="M370.074 74v-5.97c0-.82.11-1.57.32-2.26.15-.45.39-.8.72-1.06.34-.25.72-.38 1.14-.38.48 0 .95.14 1.42.42l.67-1.79c-.68-.42-1.34-.63-1.99-.63-.45 0-.87.13-1.24.39-.38.26-.79.79-1.23 1.6v-1.73h-1.74V74h1.93z"/></g></g><g style="display:inherit"><g style="display:block"><path d="M377.71 65.02c.64-.72 1.44-1.09 2.41-1.09.95 0 1.75.37 2.39 1.09.64.73.96 1.8.96 3.21 0 1.5-.32 2.61-.95 3.34-.64.73-1.44 1.1-2.4 1.1-.97 0-1.77-.37-2.41-1.09-.63-.73-.95-1.82-.95-3.28 0-1.47.32-2.56.95-3.28zm-1.46 7.7c.98 1.03 2.27 1.54 3.87 1.54 1 0 1.91-.23 2.76-.7a4.71 4.71 0 0 0 1.92-1.96c.44-.84.66-2 .66-3.47 0-1.81-.5-3.23-1.49-4.25-1-1.03-2.28-1.55-3.85-1.55-1.41 0-2.61.43-3.59 1.27-1.17 1.02-1.76 2.58-1.76 4.7 0 1.92.49 3.4 1.48 4.42z"/></g></g><g style="display:inherit"><g style="display:block"><path d="M388.437 73.33c.78.62 1.91.93 3.39.93.9 0 1.7-.16 2.41-.47.71-.31 1.25-.75 1.63-1.32a3.3 3.3 0 0 0 .56-1.82c0-.66-.15-1.21-.46-1.66a2.91 2.91 0 0 0-1.27-1.01c-.54-.23-1.5-.53-2.87-.9-.94-.26-1.51-.42-1.7-.49-.34-.14-.59-.31-.75-.52-.15-.2-.23-.42-.23-.67 0-.4.19-.74.57-1.04.38-.29 1.01-.44 1.9-.44.75 0 1.33.17 1.74.5.42.33.67.79.75 1.37l1.89-.25c-.12-.74-.34-1.33-.66-1.77-.33-.44-.83-.79-1.5-1.05-.68-.26-1.47-.39-2.36-.39-.6 0-1.15.08-1.67.23-.52.16-.93.35-1.23.57-.4.29-.72.65-.95 1.08-.23.43-.35.9-.35 1.41 0 .56.14 1.07.42 1.53.29.46.7.83 1.25 1.09.55.26 1.53.57 2.95.93 1.05.26 1.71.48 1.97.65.38.25.57.6.57 1.03 0 .49-.21.91-.64 1.28-.43.36-1.09.54-1.98.54-.88 0-1.56-.21-2.05-.61-.49-.41-.79-1-.9-1.77l-1.91.3c.21 1.22.71 2.13 1.48 2.74z"/></g></g><g style="display:inherit"><g style="display:block"><path d="M401.197 64.82c.6-.6 1.35-.9 2.24-.9.98 0 1.77.38 2.39 1.12.4.48.65 1.2.73 2.16h-6.37c.07-1 .4-1.79 1.01-2.38zm4.15 7.29c-.5.37-1.11.56-1.82.56-.95 0-1.75-.34-2.38-1-.64-.67-.99-1.63-1.07-2.88h8.51c.01-.23.01-.4.01-.52 0-1.88-.48-3.34-1.45-4.38-.96-1.04-2.21-1.56-3.74-1.56-1.57 0-2.85.53-3.84 1.59-.99 1.06-1.48 2.55-1.48 4.47 0 1.86.48 3.3 1.46 4.33.98 1.02 2.3 1.54 3.97 1.54 1.33 0 2.41-.32 3.27-.97.85-.64 1.43-1.55 1.75-2.72l-2-.24c-.29.81-.69 1.41-1.19 1.78z"/></g></g><g style="display:inherit"><g style="display:block"><path d="M412.873 74v-5.97c0-.82.11-1.57.32-2.26.15-.45.39-.8.72-1.06.34-.25.72-.38 1.14-.38.48 0 .95.14 1.42.42l.67-1.79c-.68-.42-1.34-.63-1.99-.63-.45 0-.87.13-1.24.39-.38.26-.79.79-1.23 1.6v-1.73h-1.74V74h1.93z"/></g></g><g style="display:inherit"><g style="display:block"><path d="m423.26 74 4.32-11.41h-1.99l-2.53 6.96c-.31.85-.55 1.57-.72 2.17-.22-.79-.47-1.56-.73-2.3l-2.45-6.83h-2.04L421.46 74h1.8z"/></g></g><g style="display:inherit"><g style="display:block"><path d="M431.23 74V62.59h-1.93V74h1.93zm0-13.52v-2.23h-1.93v2.23h1.93z"/></g></g><g style="display:inherit"><g style="display:block"><path d="M440.658 71.97c-.51.47-1.14.7-1.9.7-.95 0-1.72-.35-2.3-1.04-.59-.7-.88-1.81-.88-3.34 0-1.52.3-2.62.91-3.32.61-.7 1.4-1.05 2.37-1.05.65 0 1.2.2 1.65.58.46.39.77.97.95 1.73l1.88-.29c-.22-1.15-.72-2.04-1.51-2.67-.79-.62-1.8-.94-3.04-.94-.98 0-1.89.23-2.72.7-.84.46-1.46 1.15-1.87 2.08-.41.92-.61 2-.61 3.23 0 1.9.47 3.37 1.42 4.39.95 1.02 2.21 1.53 3.77 1.53 1.24 0 2.29-.37 3.15-1.11.86-.75 1.39-1.77 1.6-3.08l-1.91-.25c-.13.97-.45 1.68-.96 2.15z"/></g></g><g style="display:inherit"><g style="display:block"><path d="M447.648 64.82c.6-.6 1.35-.9 2.24-.9.98 0 1.77.38 2.39 1.12.4.48.65 1.2.73 2.16h-6.37c.07-1 .4-1.79 1.01-2.38zm4.15 7.29c-.5.37-1.11.56-1.82.56-.95 0-1.75-.34-2.38-1-.64-.67-.99-1.63-1.07-2.88h8.51c.01-.23.01-.4.01-.52 0-1.88-.48-3.34-1.45-4.38-.96-1.04-2.21-1.56-3.74-1.56-1.57 0-2.85.53-3.84 1.59-.99 1.06-1.48 2.55-1.48 4.47 0 1.86.48 3.3 1.46 4.33.98 1.02 2.3 1.54 3.97 1.54 1.33 0 2.41-.32 3.27-.97.85-.64 1.43-1.55 1.75-2.72l-2-.24c-.29.81-.69 1.41-1.19 1.78z"/></g></g><g style="display:inherit"><g style="display:block"><path d="M466.846 64.19h3.38l-.8 3.9h-3.38l.8-3.9zm-2.05 10.08.93-4.58h3.38l-.93 4.58h1.61l.94-4.58h3.31v-1.6h-2.99l.81-3.9h2.18v-1.6h-1.86l.93-4.61h-1.62l-.93 4.61h-3.39l.94-4.61h-1.62l-.93 4.61h-3.25v1.6h2.93l-.8 3.9h-2.13v1.6h1.81l-.93 4.58h1.61z"/></g></g><g style="display:inherit"><g style="display:block"><path d="M482.512 58.19h-1.25c-.34.68-.91 1.38-1.72 2.1-.81.73-1.75 1.34-2.83 1.85v1.87c.6-.22 1.28-.56 2.03-1 .76-.44 1.37-.89 1.83-1.33V74h1.94V58.19z"/></g></g></g><g fill="#102982" stroke-linejoin="round" aria-label="Microservice #2" font-family="Arial" font-size="22" font-weight="400" style="display:block"><g style="display:inherit"><g style="display:block"><path d="M335.14 369.5v-13.41l4.56 13.41h1.88l4.57-13.18v13.18h2.01v-15.75h-2.8l-3.77 10.96c-.38 1.11-.66 1.95-.84 2.52-.16-.51-.41-1.29-.75-2.33l-3.73-11.15h-3.14v15.75h2.01z"/></g></g><g style="display:inherit"><g style="display:block"><path d="M353.216 369.5v-11.41h-1.93v11.41h1.93zm0-13.52v-2.23h-1.93v2.23h1.93z"/></g></g><g style="display:inherit"><g style="display:block"><path d="M362.644 367.47c-.51.47-1.14.7-1.9.7-.95 0-1.72-.35-2.3-1.04-.59-.7-.88-1.81-.88-3.34 0-1.52.3-2.62.91-3.32.61-.7 1.4-1.05 2.37-1.05.65 0 1.2.2 1.65.58.46.39.77.97.95 1.73l1.88-.29c-.22-1.15-.72-2.04-1.51-2.67-.79-.62-1.8-.94-3.04-.94-.98 0-1.89.23-2.72.7-.84.46-1.46 1.15-1.87 2.08-.41.92-.61 2-.61 3.23 0 1.9.47 3.37 1.42 4.39.95 1.02 2.21 1.53 3.77 1.53 1.24 0 2.29-.37 3.15-1.11.86-.75 1.39-1.77 1.6-3.08l-1.91-.25c-.13.97-.45 1.68-.96 2.15z"/></g></g><g style="display:inherit"><g style="display:block"><path d="M369.074 369.5v-5.97c0-.82.11-1.57.32-2.26.15-.45.39-.8.72-1.06.34-.25.72-.38 1.14-.38.48 0 .95.14 1.42.42l.67-1.79c-.68-.42-1.34-.63-1.99-.63-.45 0-.87.13-1.24.39-.38.26-.79.79-1.23 1.6v-1.73h-1.74v11.41h1.93z"/></g></g><g style="display:inherit"><g style="display:block"><path d="M376.71 360.52c.64-.72 1.44-1.09 2.41-1.09.95 0 1.75.37 2.39 1.09.64.73.96 1.8.96 3.21 0 1.5-.32 2.61-.95 3.34-.64.73-1.44 1.1-2.4 1.1-.97 0-1.77-.37-2.41-1.09-.63-.73-.95-1.82-.95-3.28 0-1.47.32-2.56.95-3.28zm-1.46 7.7c.98 1.03 2.27 1.54 3.87 1.54 1 0 1.91-.23 2.76-.7a4.71 4.71 0 0 0 1.92-1.96c.44-.84.66-2 .66-3.47 0-1.81-.5-3.23-1.49-4.25-1-1.03-2.28-1.55-3.85-1.55-1.41 0-2.61.43-3.59 1.27-1.17 1.02-1.76 2.58-1.76 4.7 0 1.92.49 3.4 1.48 4.42z"/></g></g><g style="display:inherit"><g style="display:block"><path d="M387.437 368.83c.78.62 1.91.93 3.39.93.9 0 1.7-.16 2.41-.47.71-.31 1.25-.75 1.63-1.32a3.3 3.3 0 0 0 .56-1.82c0-.66-.15-1.21-.46-1.66a2.91 2.91 0 0 0-1.27-1.01c-.54-.23-1.5-.53-2.87-.9-.94-.26-1.51-.42-1.7-.49-.34-.14-.59-.31-.75-.52-.15-.2-.23-.42-.23-.67 0-.4.19-.74.57-1.04.38-.29 1.01-.44 1.9-.44.75 0 1.33.17 1.74.5.42.33.67.79.75 1.37l1.89-.25c-.12-.74-.34-1.33-.66-1.77-.33-.44-.83-.79-1.5-1.05-.68-.26-1.47-.39-2.36-.39-.6 0-1.15.08-1.67.23-.52.16-.93.35-1.23.57-.4.29-.72.65-.95 1.08-.23.43-.35.9-.35 1.41 0 .56.14 1.07.42 1.53.29.46.7.83 1.25 1.09.55.26 1.53.57 2.95.93 1.05.26 1.71.48 1.97.65.38.25.57.6.57 1.03 0 .49-.21.91-.64 1.28-.43.36-1.09.54-1.98.54-.88 0-1.56-.21-2.05-.61-.49-.41-.79-1-.9-1.77l-1.91.3c.21 1.22.71 2.13 1.48 2.74z"/></g></g><g style="display:inherit"><g style="display:block"><path d="M400.197 360.32c.6-.6 1.35-.9 2.24-.9.98 0 1.77.38 2.39 1.12.4.48.65 1.2.73 2.16h-6.37c.07-1 .4-1.79 1.01-2.38zm4.15 7.29c-.5.37-1.11.56-1.82.56-.95 0-1.75-.34-2.38-1-.64-.67-.99-1.63-1.07-2.88h8.51c.01-.23.01-.4.01-.52 0-1.88-.48-3.34-1.45-4.38-.96-1.04-2.21-1.56-3.74-1.56-1.57 0-2.85.53-3.84 1.59-.99 1.06-1.48 2.55-1.48 4.47 0 1.86.48 3.3 1.46 4.33.98 1.02 2.3 1.54 3.97 1.54 1.33 0 2.41-.32 3.27-.97.85-.64 1.43-1.55 1.75-2.72l-2-.24c-.29.81-.69 1.41-1.19 1.78z"/></g></g><g style="display:inherit"><g style="display:block"><path d="M411.873 369.5v-5.97c0-.82.11-1.57.32-2.26.15-.45.39-.8.72-1.06.34-.25.72-.38 1.14-.38.48 0 .95.14 1.42.42l.67-1.79c-.68-.42-1.34-.63-1.99-.63-.45 0-.87.13-1.24.39-.38.26-.79.79-1.23 1.6v-1.73h-1.74v11.41h1.93z"/></g></g><g style="display:inherit"><g style="display:block"><path d="m422.26 369.5 4.32-11.41h-1.99l-2.53 6.96c-.31.85-.55 1.57-.72 2.17-.22-.79-.47-1.56-.73-2.3l-2.45-6.83h-2.04l4.34 11.41h1.8z"/></g></g><g style="display:inherit"><g style="display:block"><path d="M430.23 369.5v-11.41h-1.93v11.41h1.93zm0-13.52v-2.23h-1.93v2.23h1.93z"/></g></g><g style="display:inherit"><g style="display:block"><path d="M439.658 367.47c-.51.47-1.14.7-1.9.7-.95 0-1.72-.35-2.3-1.04-.59-.7-.88-1.81-.88-3.34 0-1.52.3-2.62.91-3.32.61-.7 1.4-1.05 2.37-1.05.65 0 1.2.2 1.65.58.46.39.77.97.95 1.73l1.88-.29c-.22-1.15-.72-2.04-1.51-2.67-.79-.62-1.8-.94-3.04-.94-.98 0-1.89.23-2.72.7-.84.46-1.46 1.15-1.87 2.08-.41.92-.61 2-.61 3.23 0 1.9.47 3.37 1.42 4.39.95 1.02 2.21 1.53 3.77 1.53 1.24 0 2.29-.37 3.15-1.11.86-.75 1.39-1.77 1.6-3.08l-1.91-.25c-.13.97-.45 1.68-.96 2.15z"/></g></g><g style="display:inherit"><g style="display:block"><path d="M446.648 360.32c.6-.6 1.35-.9 2.24-.9.98 0 1.77.38 2.39 1.12.4.48.65 1.2.73 2.16h-6.37c.07-1 .4-1.79 1.01-2.38zm4.15 7.29c-.5.37-1.11.56-1.82.56-.95 0-1.75-.34-2.38-1-.64-.67-.99-1.63-1.07-2.88h8.51c.01-.23.01-.4.01-.52 0-1.88-.48-3.34-1.45-4.38-.96-1.04-2.21-1.56-3.74-1.56-1.57 0-2.85.53-3.84 1.59-.99 1.06-1.48 2.55-1.48 4.47 0 1.86.48 3.3 1.46 4.33.98 1.02 2.3 1.54 3.97 1.54 1.33 0 2.41-.32 3.27-.97.85-.64 1.43-1.55 1.75-2.72l-2-.24c-.29.81-.69 1.41-1.19 1.78z"/></g></g><g style="display:inherit"><g style="display:block"><path d="M465.846 359.69h3.38l-.8 3.9h-3.38l.8-3.9zm-2.05 10.08.93-4.58h3.38l-.93 4.58h1.61l.94-4.58h3.31v-1.6h-2.99l.81-3.9h2.18v-1.6h-1.86l.93-4.61h-1.62l-.93 4.61h-3.39l.94-4.61h-1.62l-.93 4.61h-3.25v1.6h2.93l-.8 3.9h-2.13v1.6h1.81l-.93 4.58h1.61z"/></g></g><g style="display:inherit"><g style="display:block"><path d="M476.662 367.64c.22-.35.49-.7.82-1.05.33-.34 1.07-1 2.23-1.98 1.39-1.17 2.39-2.1 2.98-2.77.6-.67 1.03-1.31 1.29-1.92.25-.61.38-1.23.38-1.86 0-1.24-.44-2.28-1.32-3.12-.88-.83-2.07-1.25-3.59-1.25-1.49 0-2.68.39-3.57 1.16-.89.78-1.4 1.91-1.54 3.39l1.99.21c.01-.99.29-1.77.85-2.32.56-.56 1.3-.84 2.23-.84.88 0 1.6.26 2.14.79.55.52.83 1.17.83 1.94 0 .73-.3 1.5-.91 2.32-.6.82-1.75 1.93-3.47 3.34-1.1.9-1.94 1.7-2.53 2.38-.58.69-1 1.39-1.27 2.1-.16.43-.24.87-.22 1.34h10.41v-1.86h-7.73z"/></g></g></g><g clip-path="url(#e)" style="display:block" transform="translate(-44 -41)"><g fill="#102982" stroke-linejoin="round" aria-label="MySQL" font-family="Arial" font-size="28" font-weight="700" style="display:block"><g style="display:inherit"><g style="display:block"><path d="M134.742 449v-15.78l3.97 15.78h3.89l3.98-15.78V449h3.76v-20.04h-6.07l-3.59 13.67-3.64-13.67h-6.06V449h3.76z"/></g></g><g style="display:inherit"><g style="display:block"><path d="M158.036 449.04c-.22.81-.55 1.48-.98 2-.43.53-1.09.79-1.98.79-.49 0-1.03-.06-1.63-.18l.34 3.01c.71.16 1.44.23 2.18.23.73 0 1.38-.07 1.96-.23.58-.15 1.07-.37 1.46-.65.4-.28.75-.64 1.05-1.09.31-.44.63-1.09.97-1.94l.91-2.53 5.13-13.97h-3.98l-3.39 10.31-3.47-10.31h-4.09l5.52 14.56z"/></g></g><g style="display:inherit"><g style="display:block"><path d="M171.35 447.6c1.35 1.17 3.3 1.76 5.83 1.76 1.74 0 3.2-.25 4.36-.74 1.17-.48 2.07-1.23 2.71-2.23.64-1 .96-2.08.96-3.23 0-1.26-.27-2.33-.8-3.19-.53-.86-1.27-1.54-2.22-2.04-.94-.49-2.4-.98-4.36-1.44-1.97-.46-3.21-.91-3.72-1.34-.4-.34-.6-.74-.6-1.22 0-.52.21-.93.64-1.24.66-.48 1.58-.73 2.76-.73 1.14 0 1.99.23 2.56.68.57.45.94 1.19 1.12 2.22l4.04-.17c-.06-1.85-.73-3.32-2-4.42s-3.16-1.65-5.68-1.65c-1.54 0-2.85.23-3.94.69-1.09.47-1.93 1.14-2.51 2.03-.57.89-.86 1.85-.86 2.87 0 1.58.61 2.93 1.84 4.03.88.78 2.4 1.44 4.57 1.98 1.68.42 2.76.71 3.24.88.69.24 1.18.53 1.45.87.28.33.42.73.42 1.21 0 .73-.33 1.38-.99 1.93-.66.55-1.64.83-2.95.83-1.23 0-2.2-.31-2.93-.93-.72-.62-1.2-1.59-1.44-2.91l-3.94.38c.27 2.24 1.08 3.95 2.44 5.12z"/></g></g><g style="display:inherit"><g style="display:block"><path d="m197.675 442.12-1.13 2.31c.84.3 1.68.72 2.5 1.26-.52.19-1.07.29-1.66.29-1.56 0-2.86-.58-3.89-1.74-1.02-1.17-1.53-2.92-1.53-5.26 0-2.31.51-4.03 1.53-5.18 1.03-1.15 2.37-1.73 4.02-1.73 1.65 0 2.98.58 4 1.72 1.02 1.14 1.53 2.87 1.53 5.19 0 1.12-.13 2.11-.39 2.98-.25.87-.64 1.6-1.16 2.21-1.22-.91-2.49-1.59-3.82-2.05zm8.82 1.43c.48-1.32.72-2.84.72-4.57 0-3.27-.87-5.82-2.61-7.64-1.74-1.82-4.09-2.72-7.07-2.72-2.99 0-5.37.9-7.12 2.72-1.75 1.82-2.62 4.37-2.62 7.64 0 3.28.87 5.83 2.61 7.64 1.75 1.81 4.16 2.72 7.24 2.72 1.6 0 3.05-.29 4.37-.86 1.66 1.12 2.56 1.71 2.69 1.78.58.32 1.18.57 1.79.75l1.49-2.86c-1.17-.42-2.25-.98-3.24-1.69.8-.94 1.39-1.91 1.75-2.91z"/></g></g><g style="display:inherit"><g style="display:block"><path d="M224.614 449v-3.38h-10.07v-16.5h-4.04V449h14.11z"/></g></g></g><path fill="none" stroke="#0F2982" stroke-width="7" d="M0-18.75c38.22 0 69.25 8.402 69.25 18.75S38.22 18.75 0 18.75-69.25 10.348-69.25 0-38.22-18.75 0-18.75z" style="display:block" transform="translate(175.375 400.25)"/><g clip-path="url(#f)" style="display:block" transform="translate(315.375 275.75)"><path fill="none" stroke="#0F2982" stroke-width="7" d="M-139.25 151.5c38.22 0 69.25 8.402 69.25 18.75S-101.03 189-139.25 189s-69.25-8.402-69.25-18.75 31.03-18.75 69.25-18.75z"/></g><g clip-path="url(#g)" style="display:block" transform="translate(315.375 322)"><path fill="none" stroke="#0F2982" stroke-width="7" d="M-139.25 151.5c38.22 0 69.25 8.402 69.25 18.75S-101.03 189-139.25 189s-69.25-8.402-69.25-18.75 31.03-18.75 69.25-18.75z"/></g><g clip-path="url(#h)" style="display:block" transform="translate(315.375 366)"><path fill="none" stroke="#0F2982" stroke-width="7" d="M-139.25 151.5c38.22 0 69.25 8.402 69.25 18.75S-101.03 189-139.25 189s-69.25-8.402-69.25-18.75 31.03-18.75 69.25-18.75z"/></g><g style="display:block"><path fill="none" stroke="#0F2982" stroke-width="7" d="M106.375 399.375v138.75M245.125 400.5v138.875"/></g></g></g></svg>