<svg version="1.2" xmlns="http://www.w3.org/2000/svg" viewBox="-24.00000000000003 0 296 296" width="297" height="296">
	<title>java</title>
	<style>
		.s0 { fill: #5382a1 } 
		.s1 { fill: #f8981d } 
	</style>
	<g id="Layer 1">
		<path class="s0" d="m79.9 226.8c0 0-11 6.4 7.9 8.6 22.9 2.6 34.6 2.2 59.8-2.6 0 0 6.6 4.2 15.9 7.8-56.5 24.2-128-1.4-83.6-13.8z"/>
		<path class="s0" d="m73 195.2c0 0-12.4 9.1 6.6 11.1 24.4 2.5 43.7 2.7 77.1-3.7 0 0 4.6 4.7 11.9 7.2-68.4 20-144.5 1.6-95.6-14.6z"/>
		<path class="s1" d="m131.3 141.5c13.9 16.1-3.7 30.5-3.7 30.5 0 0 35.4-18.3 19.1-41.1-15.1-21.4-26.8-31.9 36.2-68.5 0 0-98.9 24.7-51.6 79.1z"/>
		<path class="s0" d="m206.1 250.2c0 0 8.1 6.7-9 11.9-32.7 9.9-135.9 12.9-164.5 0.4-10.4-4.5 9-10.7 15.1-12 6.3-1.4 9.9-1.1 9.9-1.1-11.4-8.1-74.1 15.8-31.8 22.7 115.3 18.7 210.2-8.4 180.3-21.9z"/>
		<path class="s0" d="m85.2 162.4c0 0-52.5 12.5-18.5 17 14.3 1.9 42.8 1.5 69.4-0.7 21.7-1.9 43.5-5.8 43.5-5.8 0 0-7.6 3.3-13.2 7.1-53.3 14-156.3 7.5-126.6-6.8 25.1-12.2 45.4-10.8 45.4-10.8z"/>
		<path class="s0" d="m179.4 215c54.2-28.1 29.1-55.2 11.7-51.5-4.3 0.9-6.2 1.6-6.2 1.6 0 0 1.6-2.5 4.6-3.5 34.6-12.2 61.2 35.8-11.2 54.9 0 0 0.9-0.8 1.1-1.5z"/>
		<path class="s1" d="m146.7 3.4c0 0 30.1 30-28.4 76.2-46.9 37-10.7 58.2 0 82.3-27.4-24.7-47.5-46.5-34-66.7 19.8-29.7 74.6-44.1 62.4-91.8z"/>
		<path class="s0" d="m90.6 291.4c52 3.3 131.9-1.9 133.8-26.5 0 0-3.7 9.3-43 16.7-44.4 8.4-99.2 7.4-131.7 2.1 0 0 6.7 5.5 40.9 7.7z"/>
	</g>
</svg>